<svg height="2142" width="720" xmlns="http://www.w3.org/2000/svg">
<rect height="2142" fill="#555" width="720"></rect>
<text fill="#7f7" font-family="Courier New" font-size="12" xml:space="preserve">
<tspan x="10" y="26">20 megabytes installed</tspan>
<tspan x="10" y="42"></tspan>
<tspan x="10" y="58">node_modules</tspan>
<tspan x="10" y="74">└─┬ mailgun-js@0.10.1 </tspan>
<tspan x="10" y="90">  ├─┬ async@2.3.0 </tspan>
<tspan x="10" y="106">  │ └── lodash@4.17.4 </tspan>
<tspan x="10" y="122">  ├─┬ debug@2.6.4 </tspan>
<tspan x="10" y="138">  │ └── ms@0.7.3 </tspan>
<tspan x="10" y="154">  ├─┬ form-data@2.1.4 </tspan>
<tspan x="10" y="170">  │ ├── asynckit@0.4.0 </tspan>
<tspan x="10" y="186">  │ ├─┬ combined-stream@1.0.5 </tspan>
<tspan x="10" y="202">  │ │ └── delayed-stream@1.0.0 </tspan>
<tspan x="10" y="218">  │ └─┬ mime-types@2.1.15 </tspan>
<tspan x="10" y="234">  │   └── mime-db@1.27.0 </tspan>
<tspan x="10" y="250">  ├── inflection@1.12.0 </tspan>
<tspan x="10" y="266">  ├── is-stream@1.1.0 </tspan>
<tspan x="10" y="282">  ├─┬ path-proxy@1.0.0 </tspan>
<tspan x="10" y="298">  │ └── inflection@1.3.8 </tspan>
<tspan x="10" y="314">  ├─┬ promisify-call@2.0.4 </tspan>
<tspan x="10" y="330">  │ └── with-callback@1.0.2 </tspan>
<tspan x="10" y="346">  ├─┬ proxy-agent@2.0.0 </tspan>
<tspan x="10" y="362">  │ ├─┬ agent-base@2.0.1 </tspan>
<tspan x="10" y="378">  │ │ └── semver@5.0.3 </tspan>
<tspan x="10" y="394">  │ ├── extend@3.0.0 </tspan>
<tspan x="10" y="410">  │ ├── http-proxy-agent@1.0.0 </tspan>
<tspan x="10" y="426">  │ ├── https-proxy-agent@1.0.0 </tspan>
<tspan x="10" y="442">  │ ├── lru-cache@2.6.5 </tspan>
<tspan x="10" y="458">  │ ├─┬ pac-proxy-agent@1.0.0 </tspan>
<tspan x="10" y="474">  │ │ ├─┬ get-uri@1.1.0 </tspan>
<tspan x="10" y="490">  │ │ │ ├── data-uri-to-buffer@0.0.4 </tspan>
<tspan x="10" y="506">  │ │ │ ├── file-uri-to-path@0.0.2 </tspan>
<tspan x="10" y="522">  │ │ │ ├─┬ ftp@0.3.10 </tspan>
<tspan x="10" y="538">  │ │ │ │ ├─┬ readable-stream@1.1.14 </tspan>
<tspan x="10" y="554">  │ │ │ │ │ ├── isarray@0.0.1 </tspan>
<tspan x="10" y="570">  │ │ │ │ │ └── string_decoder@0.10.31 </tspan>
<tspan x="10" y="586">  │ │ │ │ └── xregexp@2.0.0 </tspan>
<tspan x="10" y="602">  │ │ │ └─┬ readable-stream@2.2.9 </tspan>
<tspan x="10" y="618">  │ │ │   ├── buffer-shims@1.0.0 </tspan>
<tspan x="10" y="634">  │ │ │   ├── core-util-is@1.0.2 </tspan>
<tspan x="10" y="650">  │ │ │   ├── inherits@2.0.3 </tspan>
<tspan x="10" y="666">  │ │ │   ├── isarray@1.0.0 </tspan>
<tspan x="10" y="682">  │ │ │   ├── process-nextick-args@1.0.7 </tspan>
<tspan x="10" y="698">  │ │ │   ├── string_decoder@1.0.0 </tspan>
<tspan x="10" y="714">  │ │ │   └── util-deprecate@1.0.2 </tspan>
<tspan x="10" y="730">  │ │ ├─┬ pac-resolver@1.2.6 </tspan>
<tspan x="10" y="746">  │ │ │ ├── co@3.0.6 </tspan>
<tspan x="10" y="762">  │ │ │ ├─┬ degenerator@1.0.4 </tspan>
<tspan x="10" y="778">  │ │ │ │ ├── ast-types@0.9.11 </tspan>
<tspan x="10" y="794">  │ │ │ │ ├─┬ escodegen@1.8.1 </tspan>
<tspan x="10" y="810">  │ │ │ │ │ ├── esprima@2.7.3 </tspan>
<tspan x="10" y="826">  │ │ │ │ │ ├── estraverse@1.9.3 </tspan>
<tspan x="10" y="842">  │ │ │ │ │ ├── esutils@2.0.2 </tspan>
<tspan x="10" y="858">  │ │ │ │ │ ├─┬ optionator@0.8.2 </tspan>
<tspan x="10" y="874">  │ │ │ │ │ │ ├── deep-is@0.1.3 </tspan>
<tspan x="10" y="890">  │ │ │ │ │ │ ├── fast-levenshtein@2.0.6 </tspan>
<tspan x="10" y="906">  │ │ │ │ │ │ ├── levn@0.3.0 </tspan>
<tspan x="10" y="922">  │ │ │ │ │ │ ├── prelude-ls@1.1.2 </tspan>
<tspan x="10" y="938">  │ │ │ │ │ │ ├── type-check@0.3.2 </tspan>
<tspan x="10" y="954">  │ │ │ │ │ │ └── wordwrap@1.0.0 </tspan>
<tspan x="10" y="970">  │ │ │ │ │ └─┬ source-map@0.2.0 </tspan>
<tspan x="10" y="986">  │ │ │ │ │   └── amdefine@1.0.1 </tspan>
<tspan x="10" y="1002">  │ │ │ │ └── esprima@3.1.3 </tspan>
<tspan x="10" y="1018">  │ │ │ ├── netmask@1.0.6 </tspan>
<tspan x="10" y="1034">  │ │ │ ├─┬ regenerator@0.8.46 </tspan>
<tspan x="10" y="1050">  │ │ │ │ ├─┬ commoner@0.10.8 </tspan>
<tspan x="10" y="1066">  │ │ │ │ │ ├─┬ commander@2.9.0 </tspan>
<tspan x="10" y="1082">  │ │ │ │ │ │ └── graceful-readlink@1.0.1 </tspan>
<tspan x="10" y="1098">  │ │ │ │ │ ├─┬ detective@4.5.0 </tspan>
<tspan x="10" y="1114">  │ │ │ │ │ │ ├── acorn@4.0.11 </tspan>
<tspan x="10" y="1130">  │ │ │ │ │ │ └── defined@1.0.0 </tspan>
<tspan x="10" y="1146">  │ │ │ │ │ ├─┬ glob@5.0.15 </tspan>
<tspan x="10" y="1162">  │ │ │ │ │ │ ├─┬ inflight@1.0.6 </tspan>
<tspan x="10" y="1178">  │ │ │ │ │ │ │ └── wrappy@1.0.2 </tspan>
<tspan x="10" y="1194">  │ │ │ │ │ │ ├─┬ minimatch@3.0.3 </tspan>
<tspan x="10" y="1210">  │ │ │ │ │ │ │ └─┬ brace-expansion@1.1.7 </tspan>
<tspan x="10" y="1226">  │ │ │ │ │ │ │   ├── balanced-match@0.4.2 </tspan>
<tspan x="10" y="1242">  │ │ │ │ │ │ │   └── concat-map@0.0.1 </tspan>
<tspan x="10" y="1258">  │ │ │ │ │ │ ├── once@1.4.0 </tspan>
<tspan x="10" y="1274">  │ │ │ │ │ │ └── path-is-absolute@1.0.1 </tspan>
<tspan x="10" y="1290">  │ │ │ │ │ ├── graceful-fs@4.1.11 </tspan>
<tspan x="10" y="1306">  │ │ │ │ │ ├── iconv-lite@0.4.15 </tspan>
<tspan x="10" y="1322">  │ │ │ │ │ ├─┬ mkdirp@0.5.1 </tspan>
<tspan x="10" y="1338">  │ │ │ │ │ │ └── minimist@0.0.8 </tspan>
<tspan x="10" y="1354">  │ │ │ │ │ ├── q@1.5.0 </tspan>
<tspan x="10" y="1370">  │ │ │ │ │ └─┬ recast@0.11.23 </tspan>
<tspan x="10" y="1386">  │ │ │ │ │   ├── ast-types@0.9.6 </tspan>
<tspan x="10" y="1402">  │ │ │ │ │   └── source-map@0.5.6 </tspan>
<tspan x="10" y="1418">  │ │ │ │ ├─┬ defs@1.1.1 </tspan>
<tspan x="10" y="1434">  │ │ │ │ │ ├─┬ alter@0.2.0 </tspan>
<tspan x="10" y="1450">  │ │ │ │ │ │ └── stable@0.1.6 </tspan>
<tspan x="10" y="1466">  │ │ │ │ │ ├── ast-traverse@0.1.1 </tspan>
<tspan x="10" y="1482">  │ │ │ │ │ ├── breakable@1.0.0 </tspan>
<tspan x="10" y="1498">  │ │ │ │ │ ├── esprima-fb@15001.1001.0-dev-harmony-fb </tspan>
<tspan x="10" y="1514">  │ │ │ │ │ ├── simple-fmt@0.1.0 </tspan>
<tspan x="10" y="1530">  │ │ │ │ │ ├── simple-is@0.2.0 </tspan>
<tspan x="10" y="1546">  │ │ │ │ │ ├── stringmap@0.2.2 </tspan>
<tspan x="10" y="1562">  │ │ │ │ │ ├── stringset@0.2.1 </tspan>
<tspan x="10" y="1578">  │ │ │ │ │ ├── tryor@0.1.2 </tspan>
<tspan x="10" y="1594">  │ │ │ │ │ └─┬ yargs@3.27.0 </tspan>
<tspan x="10" y="1610">  │ │ │ │ │   ├── camelcase@1.2.1 </tspan>
<tspan x="10" y="1626">  │ │ │ │ │   ├─┬ cliui@2.1.0 </tspan>
<tspan x="10" y="1642">  │ │ │ │ │   │ ├─┬ center-align@0.1.3 </tspan>
<tspan x="10" y="1658">  │ │ │ │ │   │ │ ├─┬ align-text@0.1.4 </tspan>
<tspan x="10" y="1674">  │ │ │ │ │   │ │ │ ├─┬ kind-of@3.1.0 </tspan>
<tspan x="10" y="1690">  │ │ │ │ │   │ │ │ │ └── is-buffer@1.1.5 </tspan>
<tspan x="10" y="1706">  │ │ │ │ │   │ │ │ ├── longest@1.0.1 </tspan>
<tspan x="10" y="1722">  │ │ │ │ │   │ │ │ └── repeat-string@1.6.1 </tspan>
<tspan x="10" y="1738">  │ │ │ │ │   │ │ └── lazy-cache@1.0.4 </tspan>
<tspan x="10" y="1754">  │ │ │ │ │   │ ├── right-align@0.1.3 </tspan>
<tspan x="10" y="1770">  │ │ │ │ │   │ └── wordwrap@0.0.2 </tspan>
<tspan x="10" y="1786">  │ │ │ │ │   ├── decamelize@1.2.0 </tspan>
<tspan x="10" y="1802">  │ │ │ │ │   ├─┬ os-locale@1.4.0 </tspan>
<tspan x="10" y="1818">  │ │ │ │ │   │ └─┬ lcid@1.0.0 </tspan>
<tspan x="10" y="1834">  │ │ │ │ │   │   └── invert-kv@1.0.0 </tspan>
<tspan x="10" y="1850">  │ │ │ │ │   ├── window-size@0.1.4 </tspan>
<tspan x="10" y="1866">  │ │ │ │ │   └── y18n@3.2.1 </tspan>
<tspan x="10" y="1882">  │ │ │ │ ├── esprima-fb@15001.1001.0-dev-harmony-fb </tspan>
<tspan x="10" y="1898">  │ │ │ │ ├── private@0.1.7 </tspan>
<tspan x="10" y="1914">  │ │ │ │ ├─┬ recast@0.10.33 </tspan>
<tspan x="10" y="1930">  │ │ │ │ │ ├── ast-types@0.8.12 </tspan>
<tspan x="10" y="1946">  │ │ │ │ │ ├── esprima-fb@15001.1001.0-dev-harmony-fb </tspan>
<tspan x="10" y="1962">  │ │ │ │ │ └── source-map@0.5.6 </tspan>
<tspan x="10" y="1978">  │ │ │ │ ├── regenerator-runtime@0.9.6 </tspan>
<tspan x="10" y="1994">  │ │ │ │ └── through@2.3.8 </tspan>
<tspan x="10" y="2010">  │ │ │ └── thunkify@2.1.2 </tspan>
<tspan x="10" y="2026">  │ │ └─┬ stream-to-buffer@0.1.0 </tspan>
<tspan x="10" y="2042">  │ │   └── stream-to@0.2.2 </tspan>
<tspan x="10" y="2058">  │ └─┬ socks-proxy-agent@2.0.0 </tspan>
<tspan x="10" y="2074">  │   └─┬ socks@1.1.10 </tspan>
<tspan x="10" y="2090">  │     ├── ip@1.1.5 </tspan>
<tspan x="10" y="2106">  │     └── smart-buffer@1.1.15 </tspan>
<tspan x="10" y="2122">  └── tsscmp@1.0.5</tspan>
</text>
</svg>
